<svg width="24" height="26" viewBox="0 0 24 26" fill="none" xmlns="http://www.w3.org/2000/svg">
<path d="M12 15.1663C11.2044 15.1663 10.4413 15.5087 9.87868 16.1182C9.31607 16.7277 9 17.5544 9 18.4163V26.0278H15V18.4163C15 17.5544 14.6839 16.7277 14.1213 16.1182C13.5587 15.5087 12.7956 15.1663 12 15.1663Z" fill="white"/>
<path d="M13.338 0.902548C12.9707 0.544437 12.4941 0.346283 12 0.346283C11.5059 0.346283 11.0293 0.544437 10.662 0.902548L0 11.2982V22.5649C0 23.4843 0.337142 24.3661 0.937258 25.0162C1.53737 25.6663 2.35131 26.0315 3.2 26.0315H7V18.4168C7 16.9802 7.52678 15.6025 8.46447 14.5866C9.40215 13.5708 10.6739 13.0001 12 13.0001C13.3261 13.0001 14.5979 13.5708 15.5355 14.5866C16.4732 15.6025 17 16.9802 17 18.4168V26.0283H20.8C21.6487 26.0283 22.4626 25.6631 23.0627 25.0129C23.6629 24.3628 24 23.481 24 22.5616V11.295L13.338 0.902548Z" fill="white"/>
</svg>
